<?xml version="1.0" encoding="us-ascii" standalone="no"?><svg xmlns="http://www.w3.org/2000/svg" xmlns:xlink="http://www.w3.org/1999/xlink" contentStyleType="text/css" height="1096px" preserveAspectRatio="none" style="width:743px;height:1096px;background:#FFFFFF;" version="1.1" viewBox="0 0 743 1096" width="743px" zoomAndPan="magnify"><defs/><g><text fill="#000000" font-family="sans-serif" font-size="14" font-weight="bold" lengthAdjust="spacing" textLength="361" x="187" y="28.5352">US001 - Administrator User Account Management</text><rect fill="#FFFFFF" height="87.9316" style="stroke:#181818;stroke-width:1.0;" width="10" x="401.5" y="193.5977"/><rect fill="#FFFFFF" height="29.3105" style="stroke:#181818;stroke-width:1.0;" width="10" x="401.5" y="354.1504"/><rect fill="#FFFFFF" height="146.5527" style="stroke:#181818;stroke-width:1.0;" width="10" x="401.5" y="412.7715"/><rect fill="#FFFFFF" height="29.3105" style="stroke:#181818;stroke-width:1.0;" width="10" x="401.5" y="631.9453"/><rect fill="#FFFFFF" height="146.5527" style="stroke:#181818;stroke-width:1.0;" width="10" x="401.5" y="690.5664"/><rect fill="#FFFFFF" height="87.9316" style="stroke:#181818;stroke-width:1.0;" width="10" x="401.5" y="909.7402"/><rect fill="#FFFFFF" height="29.3105" style="stroke:#181818;stroke-width:1.0;" width="10" x="691.5" y="222.9082"/><rect fill="#FFFFFF" height="29.3105" style="stroke:#181818;stroke-width:1.0;" width="10" x="691.5" y="442.082"/><rect fill="#FFFFFF" height="29.3105" style="stroke:#181818;stroke-width:1.0;" width="10" x="691.5" y="500.7031"/><rect fill="#FFFFFF" height="29.3105" style="stroke:#181818;stroke-width:1.0;" width="10" x="691.5" y="719.877"/><rect fill="#FFFFFF" height="29.3105" style="stroke:#181818;stroke-width:1.0;" width="10" x="691.5" y="778.498"/><rect fill="#FFFFFF" height="29.3105" style="stroke:#181818;stroke-width:1.0;" width="10" x="691.5" y="939.0508"/><line style="stroke:#181818;stroke-width:0.5;stroke-dasharray:5.0,5.0;" x1="55" x2="55" y1="118.9766" y2="1015.6719"/><line style="stroke:#181818;stroke-width:0.5;stroke-dasharray:5.0,5.0;" x1="406.5" x2="406.5" y1="118.9766" y2="1015.6719"/><line style="stroke:#181818;stroke-width:0.5;stroke-dasharray:5.0,5.0;" x1="696" x2="696" y1="118.9766" y2="1015.6719"/><text fill="#000000" font-family="sans-serif" font-size="14" lengthAdjust="spacing" textLength="95" x="5" y="116.0234">Administrator</text><ellipse cx="55.5" cy="50.9883" fill="#E3E3E3" rx="8" ry="8" style="stroke:#181818;stroke-width:0.5;"/><path d="M55.5,58.9883 L55.5,85.9883 M42.5,66.9883 L68.5,66.9883 M55.5,85.9883 L42.5,100.9883 M55.5,85.9883 L68.5,100.9883 " fill="none" style="stroke:#181818;stroke-width:0.5;"/><text fill="#000000" font-family="sans-serif" font-size="14" lengthAdjust="spacing" textLength="95" x="5" y="1028.207">Administrator</text><ellipse cx="55.5" cy="1039.6602" fill="#E3E3E3" rx="8" ry="8" style="stroke:#181818;stroke-width:0.5;"/><path d="M55.5,1047.6602 L55.5,1074.6602 M42.5,1055.6602 L68.5,1055.6602 M55.5,1074.6602 L42.5,1089.6602 M55.5,1074.6602 L68.5,1089.6602 " fill="none" style="stroke:#181818;stroke-width:0.5;"/><rect fill="#E3E3E3" height="30.4883" rx="2.5" ry="2.5" style="stroke:#181818;stroke-width:0.5;" width="66" x="373.5" y="87.4883"/><text fill="#000000" font-family="sans-serif" font-size="14" lengthAdjust="spacing" textLength="52" x="380.5" y="108.0234">:System</text><rect fill="#E3E3E3" height="30.4883" rx="2.5" ry="2.5" style="stroke:#181818;stroke-width:0.5;" width="66" x="373.5" y="1014.6719"/><text fill="#000000" font-family="sans-serif" font-size="14" lengthAdjust="spacing" textLength="52" x="380.5" y="1035.207">:System</text><text fill="#000000" font-family="sans-serif" font-size="14" lengthAdjust="spacing" textLength="63" x="662" y="116.0234">Database</text><path d="M678.5,66.4883 C678.5,56.4883 696.5,56.4883 696.5,56.4883 C696.5,56.4883 714.5,56.4883 714.5,66.4883 L714.5,92.4883 C714.5,102.4883 696.5,102.4883 696.5,102.4883 C696.5,102.4883 678.5,102.4883 678.5,92.4883 L678.5,66.4883 " fill="#E3E3E3" style="stroke:#181818;stroke-width:1.5;"/><path d="M678.5,66.4883 C678.5,76.4883 696.5,76.4883 696.5,76.4883 C696.5,76.4883 714.5,76.4883 714.5,66.4883 " fill="none" style="stroke:#181818;stroke-width:1.5;"/><text fill="#000000" font-family="sans-serif" font-size="14" lengthAdjust="spacing" textLength="63" x="662" y="1028.207">Database</text><path d="M678.5,1041.1602 C678.5,1031.1602 696.5,1031.1602 696.5,1031.1602 C696.5,1031.1602 714.5,1031.1602 714.5,1041.1602 L714.5,1067.1602 C714.5,1077.1602 696.5,1077.1602 696.5,1077.1602 C696.5,1077.1602 678.5,1077.1602 678.5,1067.1602 L678.5,1041.1602 " fill="#E3E3E3" style="stroke:#181818;stroke-width:1.5;"/><path d="M678.5,1041.1602 C678.5,1051.1602 696.5,1051.1602 696.5,1051.1602 C696.5,1051.1602 714.5,1051.1602 714.5,1041.1602 " fill="none" style="stroke:#181818;stroke-width:1.5;"/><rect fill="#FFFFFF" height="87.9316" style="stroke:#181818;stroke-width:1.0;" width="10" x="401.5" y="193.5977"/><rect fill="#FFFFFF" height="29.3105" style="stroke:#181818;stroke-width:1.0;" width="10" x="401.5" y="354.1504"/><rect fill="#FFFFFF" height="146.5527" style="stroke:#181818;stroke-width:1.0;" width="10" x="401.5" y="412.7715"/><rect fill="#FFFFFF" height="29.3105" style="stroke:#181818;stroke-width:1.0;" width="10" x="401.5" y="631.9453"/><rect fill="#FFFFFF" height="146.5527" style="stroke:#181818;stroke-width:1.0;" width="10" x="401.5" y="690.5664"/><rect fill="#FFFFFF" height="87.9316" style="stroke:#181818;stroke-width:1.0;" width="10" x="401.5" y="909.7402"/><rect fill="#FFFFFF" height="29.3105" style="stroke:#181818;stroke-width:1.0;" width="10" x="691.5" y="222.9082"/><rect fill="#FFFFFF" height="29.3105" style="stroke:#181818;stroke-width:1.0;" width="10" x="691.5" y="442.082"/><rect fill="#FFFFFF" height="29.3105" style="stroke:#181818;stroke-width:1.0;" width="10" x="691.5" y="500.7031"/><rect fill="#FFFFFF" height="29.3105" style="stroke:#181818;stroke-width:1.0;" width="10" x="691.5" y="719.877"/><rect fill="#FFFFFF" height="29.3105" style="stroke:#181818;stroke-width:1.0;" width="10" x="691.5" y="778.498"/><rect fill="#FFFFFF" height="29.3105" style="stroke:#181818;stroke-width:1.0;" width="10" x="691.5" y="939.0508"/><rect fill="#EEEEEE" height="3" style="stroke:#EEEEEE;stroke-width:1.0;" width="736" x="0" y="149.6318"/><line style="stroke:#000000;stroke-width:1.0;" x1="0" x2="736" y1="149.6318" y2="149.6318"/><line style="stroke:#000000;stroke-width:1.0;" x1="0" x2="736" y1="152.6318" y2="152.6318"/><rect fill="#EEEEEE" height="23.3105" style="stroke:#000000;stroke-width:2.0;" width="222" x="257" y="138.9766"/><text fill="#000000" font-family="sans-serif" font-size="13" font-weight="bold" lengthAdjust="spacing" textLength="204" x="263" y="155.5449">View Users with Access Levels</text><polygon fill="#181818" points="389.5,189.5977,399.5,193.5977,389.5,197.5977,393.5,193.5977" style="stroke:#181818;stroke-width:1.0;"/><line style="stroke:#181818;stroke-width:1.0;" x1="55.5" x2="395.5" y1="193.5977" y2="193.5977"/><text fill="#000000" font-family="sans-serif" font-size="13" font-weight="bold" lengthAdjust="spacing" textLength="9" x="62.5" y="188.8555">1</text><text fill="#000000" font-family="sans-serif" font-size="13" lengthAdjust="spacing" textLength="198" x="75.5" y="188.8555">Requests to view user accounts</text><polygon fill="#181818" points="679.5,218.9082,689.5,222.9082,679.5,226.9082,683.5,222.9082" style="stroke:#181818;stroke-width:1.0;"/><line style="stroke:#181818;stroke-width:1.0;" x1="411.5" x2="685.5" y1="222.9082" y2="222.9082"/><text fill="#000000" font-family="sans-serif" font-size="13" font-weight="bold" lengthAdjust="spacing" textLength="9" x="418.5" y="218.166">2</text><text fill="#000000" font-family="sans-serif" font-size="13" lengthAdjust="spacing" textLength="181" x="431.5" y="218.166">Queries for all user accounts</text><polygon fill="#181818" points="422.5,248.2188,412.5,252.2188,422.5,256.2188,418.5,252.2188" style="stroke:#181818;stroke-width:1.0;"/><line style="stroke:#181818;stroke-width:1.0;stroke-dasharray:2.0,2.0;" x1="416.5" x2="695.5" y1="252.2188" y2="252.2188"/><text fill="#000000" font-family="sans-serif" font-size="13" font-weight="bold" lengthAdjust="spacing" textLength="9" x="428.5" y="247.4766">3</text><text fill="#000000" font-family="sans-serif" font-size="13" lengthAdjust="spacing" textLength="164" x="441.5" y="247.4766">Returns user account data</text><polygon fill="#181818" points="66.5,277.5293,56.5,281.5293,66.5,285.5293,62.5,281.5293" style="stroke:#181818;stroke-width:1.0;"/><line style="stroke:#181818;stroke-width:1.0;stroke-dasharray:2.0,2.0;" x1="60.5" x2="405.5" y1="281.5293" y2="281.5293"/><text fill="#000000" font-family="sans-serif" font-size="13" font-weight="bold" lengthAdjust="spacing" textLength="9" x="72.5" y="276.7871">4</text><text fill="#000000" font-family="sans-serif" font-size="13" lengthAdjust="spacing" textLength="250" x="85.5" y="276.7871">Displays list of users with access levels</text><rect fill="#EEEEEE" height="3" style="stroke:#EEEEEE;stroke-width:1.0;" width="736" x="0" y="310.1846"/><line style="stroke:#000000;stroke-width:1.0;" x1="0" x2="736" y1="310.1846" y2="310.1846"/><line style="stroke:#000000;stroke-width:1.0;" x1="0" x2="736" y1="313.1846" y2="313.1846"/><rect fill="#EEEEEE" height="23.3105" style="stroke:#000000;stroke-width:2.0;" width="189" x="273.5" y="299.5293"/><text fill="#000000" font-family="sans-serif" font-size="13" font-weight="bold" lengthAdjust="spacing" textLength="171" x="279.5" y="316.0977">Create New User Account</text><polygon fill="#181818" points="389.5,350.1504,399.5,354.1504,389.5,358.1504,393.5,354.1504" style="stroke:#181818;stroke-width:1.0;"/><line style="stroke:#181818;stroke-width:1.0;" x1="55.5" x2="395.5" y1="354.1504" y2="354.1504"/><text fill="#000000" font-family="sans-serif" font-size="13" font-weight="bold" lengthAdjust="spacing" textLength="9" x="62.5" y="349.4082">5</text><text fill="#000000" font-family="sans-serif" font-size="13" lengthAdjust="spacing" textLength="161" x="75.5" y="349.4082">Selects "Create New User"</text><polygon fill="#181818" points="66.5,379.4609,56.5,383.4609,66.5,387.4609,62.5,383.4609" style="stroke:#181818;stroke-width:1.0;"/><line style="stroke:#181818;stroke-width:1.0;stroke-dasharray:2.0,2.0;" x1="60.5" x2="405.5" y1="383.4609" y2="383.4609"/><text fill="#000000" font-family="sans-serif" font-size="13" font-weight="bold" lengthAdjust="spacing" textLength="9" x="72.5" y="378.7188">6</text><text fill="#000000" font-family="sans-serif" font-size="13" lengthAdjust="spacing" textLength="174" x="85.5" y="378.7188">Displays user creation form</text><polygon fill="#181818" points="389.5,408.7715,399.5,412.7715,389.5,416.7715,393.5,412.7715" style="stroke:#181818;stroke-width:1.0;"/><line style="stroke:#181818;stroke-width:1.0;" x1="55.5" x2="395.5" y1="412.7715" y2="412.7715"/><text fill="#000000" font-family="sans-serif" font-size="13" font-weight="bold" lengthAdjust="spacing" textLength="9" x="62.5" y="408.0293">7</text><text fill="#000000" font-family="sans-serif" font-size="13" lengthAdjust="spacing" textLength="267" x="75.5" y="408.0293">Submits new user details with access level</text><polygon fill="#181818" points="679.5,438.082,689.5,442.082,679.5,446.082,683.5,442.082" style="stroke:#181818;stroke-width:1.0;"/><line style="stroke:#181818;stroke-width:1.0;" x1="411.5" x2="685.5" y1="442.082" y2="442.082"/><text fill="#000000" font-family="sans-serif" font-size="13" font-weight="bold" lengthAdjust="spacing" textLength="9" x="418.5" y="437.3398">8</text><text fill="#000000" font-family="sans-serif" font-size="13" lengthAdjust="spacing" textLength="177" x="431.5" y="437.3398">Stores new user information</text><polygon fill="#181818" points="422.5,467.3926,412.5,471.3926,422.5,475.3926,418.5,471.3926" style="stroke:#181818;stroke-width:1.0;"/><line style="stroke:#181818;stroke-width:1.0;stroke-dasharray:2.0,2.0;" x1="416.5" x2="695.5" y1="471.3926" y2="471.3926"/><text fill="#000000" font-family="sans-serif" font-size="13" font-weight="bold" lengthAdjust="spacing" textLength="9" x="428.5" y="466.6504">9</text><text fill="#000000" font-family="sans-serif" font-size="13" lengthAdjust="spacing" textLength="180" x="441.5" y="466.6504">Confirms successful storage</text><polygon fill="#181818" points="679.5,496.7031,689.5,500.7031,679.5,504.7031,683.5,500.7031" style="stroke:#181818;stroke-width:1.0;"/><line style="stroke:#181818;stroke-width:1.0;" x1="411.5" x2="685.5" y1="500.7031" y2="500.7031"/><text fill="#000000" font-family="sans-serif" font-size="13" font-weight="bold" lengthAdjust="spacing" textLength="18" x="418.5" y="495.9609">10</text><text fill="#000000" font-family="sans-serif" font-size="13" lengthAdjust="spacing" textLength="220" x="440.5" y="495.9609">Logs account creation in audit trail</text><polygon fill="#181818" points="422.5,526.0137,412.5,530.0137,422.5,534.0137,418.5,530.0137" style="stroke:#181818;stroke-width:1.0;"/><line style="stroke:#181818;stroke-width:1.0;stroke-dasharray:2.0,2.0;" x1="416.5" x2="695.5" y1="530.0137" y2="530.0137"/><text fill="#000000" font-family="sans-serif" font-size="13" font-weight="bold" lengthAdjust="spacing" textLength="18" x="428.5" y="525.2715">11</text><text fill="#000000" font-family="sans-serif" font-size="13" lengthAdjust="spacing" textLength="168" x="450.5" y="525.2715">Confirms log entry created</text><polygon fill="#181818" points="66.5,555.3242,56.5,559.3242,66.5,563.3242,62.5,559.3242" style="stroke:#181818;stroke-width:1.0;"/><line style="stroke:#181818;stroke-width:1.0;stroke-dasharray:2.0,2.0;" x1="60.5" x2="405.5" y1="559.3242" y2="559.3242"/><text fill="#000000" font-family="sans-serif" font-size="13" font-weight="bold" lengthAdjust="spacing" textLength="18" x="72.5" y="554.582">12</text><text fill="#000000" font-family="sans-serif" font-size="13" lengthAdjust="spacing" textLength="198" x="94.5" y="554.582">Confirms user creation success</text><rect fill="#EEEEEE" height="3" style="stroke:#EEEEEE;stroke-width:1.0;" width="736" x="0" y="587.9795"/><line style="stroke:#000000;stroke-width:1.0;" x1="0" x2="736" y1="587.9795" y2="587.9795"/><line style="stroke:#000000;stroke-width:1.0;" x1="0" x2="736" y1="590.9795" y2="590.9795"/><rect fill="#EEEEEE" height="23.3105" style="stroke:#000000;stroke-width:2.0;" width="189" x="273.5" y="577.3242"/><text fill="#000000" font-family="sans-serif" font-size="13" font-weight="bold" lengthAdjust="spacing" textLength="171" x="279.5" y="593.8926">Modify User Access Level</text><polygon fill="#181818" points="389.5,627.9453,399.5,631.9453,389.5,635.9453,393.5,631.9453" style="stroke:#181818;stroke-width:1.0;"/><line style="stroke:#181818;stroke-width:1.0;" x1="55.5" x2="395.5" y1="631.9453" y2="631.9453"/><text fill="#000000" font-family="sans-serif" font-size="13" font-weight="bold" lengthAdjust="spacing" textLength="18" x="62.5" y="627.2031">13</text><text fill="#000000" font-family="sans-serif" font-size="13" lengthAdjust="spacing" textLength="140" x="84.5" y="627.2031">Selects user to modify</text><polygon fill="#181818" points="66.5,657.2559,56.5,661.2559,66.5,665.2559,62.5,661.2559" style="stroke:#181818;stroke-width:1.0;"/><line style="stroke:#181818;stroke-width:1.0;stroke-dasharray:2.0,2.0;" x1="60.5" x2="405.5" y1="661.2559" y2="661.2559"/><text fill="#000000" font-family="sans-serif" font-size="13" font-weight="bold" lengthAdjust="spacing" textLength="18" x="72.5" y="656.5137">14</text><text fill="#000000" font-family="sans-serif" font-size="13" lengthAdjust="spacing" textLength="131" x="94.5" y="656.5137">Displays user details</text><polygon fill="#181818" points="389.5,686.5664,399.5,690.5664,389.5,694.5664,393.5,690.5664" style="stroke:#181818;stroke-width:1.0;"/><line style="stroke:#181818;stroke-width:1.0;" x1="55.5" x2="395.5" y1="690.5664" y2="690.5664"/><text fill="#000000" font-family="sans-serif" font-size="13" font-weight="bold" lengthAdjust="spacing" textLength="18" x="62.5" y="685.8242">15</text><text fill="#000000" font-family="sans-serif" font-size="13" lengthAdjust="spacing" textLength="161" x="84.5" y="685.8242">Updates user access level</text><polygon fill="#181818" points="679.5,715.877,689.5,719.877,679.5,723.877,683.5,719.877" style="stroke:#181818;stroke-width:1.0;"/><line style="stroke:#181818;stroke-width:1.0;" x1="411.5" x2="685.5" y1="719.877" y2="719.877"/><text fill="#000000" font-family="sans-serif" font-size="13" font-weight="bold" lengthAdjust="spacing" textLength="18" x="418.5" y="715.1348">16</text><text fill="#000000" font-family="sans-serif" font-size="13" lengthAdjust="spacing" textLength="161" x="440.5" y="715.1348">Updates user access level</text><polygon fill="#181818" points="422.5,745.1875,412.5,749.1875,422.5,753.1875,418.5,749.1875" style="stroke:#181818;stroke-width:1.0;"/><line style="stroke:#181818;stroke-width:1.0;stroke-dasharray:2.0,2.0;" x1="416.5" x2="695.5" y1="749.1875" y2="749.1875"/><text fill="#000000" font-family="sans-serif" font-size="13" font-weight="bold" lengthAdjust="spacing" textLength="18" x="428.5" y="744.4453">17</text><text fill="#000000" font-family="sans-serif" font-size="13" lengthAdjust="spacing" textLength="176" x="450.5" y="744.4453">Confirms successful update</text><polygon fill="#181818" points="679.5,774.498,689.5,778.498,679.5,782.498,683.5,778.498" style="stroke:#181818;stroke-width:1.0;"/><line style="stroke:#181818;stroke-width:1.0;" x1="411.5" x2="685.5" y1="778.498" y2="778.498"/><text fill="#000000" font-family="sans-serif" font-size="13" font-weight="bold" lengthAdjust="spacing" textLength="18" x="418.5" y="773.7559">18</text><text fill="#000000" font-family="sans-serif" font-size="13" lengthAdjust="spacing" textLength="239" x="440.5" y="773.7559">Logs access level change in audit trail</text><polygon fill="#181818" points="422.5,803.8086,412.5,807.8086,422.5,811.8086,418.5,807.8086" style="stroke:#181818;stroke-width:1.0;"/><line style="stroke:#181818;stroke-width:1.0;stroke-dasharray:2.0,2.0;" x1="416.5" x2="695.5" y1="807.8086" y2="807.8086"/><text fill="#000000" font-family="sans-serif" font-size="13" font-weight="bold" lengthAdjust="spacing" textLength="18" x="428.5" y="803.0664">19</text><text fill="#000000" font-family="sans-serif" font-size="13" lengthAdjust="spacing" textLength="168" x="450.5" y="803.0664">Confirms log entry created</text><polygon fill="#181818" points="66.5,833.1191,56.5,837.1191,66.5,841.1191,62.5,837.1191" style="stroke:#181818;stroke-width:1.0;"/><line style="stroke:#181818;stroke-width:1.0;stroke-dasharray:2.0,2.0;" x1="60.5" x2="405.5" y1="837.1191" y2="837.1191"/><text fill="#000000" font-family="sans-serif" font-size="13" font-weight="bold" lengthAdjust="spacing" textLength="18" x="72.5" y="832.377">20</text><text fill="#000000" font-family="sans-serif" font-size="13" lengthAdjust="spacing" textLength="238" x="94.5" y="832.377">Confirms access level update success</text><rect fill="#EEEEEE" height="3" style="stroke:#EEEEEE;stroke-width:1.0;" width="736" x="0" y="865.7744"/><line style="stroke:#000000;stroke-width:1.0;" x1="0" x2="736" y1="865.7744" y2="865.7744"/><line style="stroke:#000000;stroke-width:1.0;" x1="0" x2="736" y1="868.7744" y2="868.7744"/><rect fill="#EEEEEE" height="23.3105" style="stroke:#000000;stroke-width:2.0;" width="128" x="304" y="855.1191"/><text fill="#000000" font-family="sans-serif" font-size="13" font-weight="bold" lengthAdjust="spacing" textLength="110" x="310" y="871.6875">Search for Users</text><polygon fill="#181818" points="389.5,905.7402,399.5,909.7402,389.5,913.7402,393.5,909.7402" style="stroke:#181818;stroke-width:1.0;"/><line style="stroke:#181818;stroke-width:1.0;" x1="55.5" x2="395.5" y1="909.7402" y2="909.7402"/><text fill="#000000" font-family="sans-serif" font-size="13" font-weight="bold" lengthAdjust="spacing" textLength="18" x="62.5" y="904.998">21</text><text fill="#000000" font-family="sans-serif" font-size="13" lengthAdjust="spacing" textLength="305" x="84.5" y="904.998">Enters search criteria (name/email/organization)</text><polygon fill="#181818" points="679.5,935.0508,689.5,939.0508,679.5,943.0508,683.5,939.0508" style="stroke:#181818;stroke-width:1.0;"/><line style="stroke:#181818;stroke-width:1.0;" x1="411.5" x2="685.5" y1="939.0508" y2="939.0508"/><text fill="#000000" font-family="sans-serif" font-size="13" font-weight="bold" lengthAdjust="spacing" textLength="18" x="418.5" y="934.3086">22</text><text fill="#000000" font-family="sans-serif" font-size="13" lengthAdjust="spacing" textLength="203" x="440.5" y="934.3086">Queries matching user accounts</text><polygon fill="#181818" points="422.5,964.3613,412.5,968.3613,422.5,972.3613,418.5,968.3613" style="stroke:#181818;stroke-width:1.0;"/><line style="stroke:#181818;stroke-width:1.0;stroke-dasharray:2.0,2.0;" x1="416.5" x2="695.5" y1="968.3613" y2="968.3613"/><text fill="#000000" font-family="sans-serif" font-size="13" font-weight="bold" lengthAdjust="spacing" textLength="18" x="428.5" y="963.6191">23</text><text fill="#000000" font-family="sans-serif" font-size="13" lengthAdjust="spacing" textLength="173" x="450.5" y="963.6191">Returns matching user data</text><polygon fill="#181818" points="66.5,993.6719,56.5,997.6719,66.5,1001.6719,62.5,997.6719" style="stroke:#181818;stroke-width:1.0;"/><line style="stroke:#181818;stroke-width:1.0;stroke-dasharray:2.0,2.0;" x1="60.5" x2="405.5" y1="997.6719" y2="997.6719"/><text fill="#000000" font-family="sans-serif" font-size="13" font-weight="bold" lengthAdjust="spacing" textLength="18" x="72.5" y="992.9297">24</text><text fill="#000000" font-family="sans-serif" font-size="13" lengthAdjust="spacing" textLength="158" x="94.5" y="992.9297">Displays filtered user list</text><!--SRC=[lLLDZzf03BtdLrYSsWFQxHM9IilIsswbDg9tapXajFD1npCW-klhcOGKMbZ2fIS6Pfxzdfzj-4tPBNeqO9nrLUkT8GW-Ki73pHQhDznG6GwQm5CLq6xqwGDkiNPxPJVGe6OgYg22F5sLZu-VO0fFjL5MSV0Od8SLauUdgdBH1dX5Av4DsL0K68EpqQp9oxbAJoTdo0aWTx4AIHjKfROe8IQpyi21JBxkZaMD0TV819DbVygtoqLHpEVmGz4-qs3Ogz0cCiGCBxGZpJ2V5qNE0jFFVRmPVAUVaJWm10Ux18z91NOgED5LEmnqpDzzf03BnGo-HVAA61gHX5fVmmgxvGAcPrb3z9RF092q5JMTmexf19gPps2fUAlnmA2bUk2Q7AANYvrSdUMUHkh9fn8zUqg_VEqBDVXriJWbQMaAXibVgCdLkbmWcZLMAO1oDfNANA3sR-guDafIswCbDGLK-eBI6nwLqc1q4aVPH26JUS-XPsSRvGq3nvohYHfOGabJN_6eI_VYDZmuEgWMRHXh5MG0HSIelDfjGAR77xeeLDziZG5wNl5Um9L-U7MrQWv3BmpZydv3v0moCIQZx-w6tiinVR3QobZGdqaPQ_i8t3ZJOmuqolCX1rIjR5BwpxQVCUXetp2_9FHLczTNjpKlclx5XdJ7tUFAA_cg43vODFH0HfGzEBz1gtxbXliuScdA35Pj-ckvUskU8-zRcutIGf_g3fkMw8NQ_0O0]--></g></svg>